# xmcd CD database file
# Copyright (C) 1997 Ti Kan
# 
# Track frame offsets:
#     150
#     18337
#     34885
#     51947
#     66640
#     76637
#     102040
#     115645
#     133287
#     148117
#     164017
#     188160
#     204805
#     221862
# 
# Disc length: 3178 seconds
# 
# Revision: 1
# Processed by: cddbd v1.4b41PL1 Copyright (c) Steve Scherf et al.
# Submitted via: DiscPlay 4.0.4
# 
DISCID=cc0c680e
DTITLE=Carole Laure - Western Shadows
DYEAR=1900
DGENRE=
TTITLE0=Stand by your man
TTITLE1=Anybody with the blues
TTITLE2=Danse avant de tomber
TTITLE3=Seven year ache
TTITLE4=Quand le soleil dit bonjour aux montagnes
TTITLE5=To know him is to love him
TTITLE6=Baby you're something
TTITLE7=Someone like us
TTITLE8=Baby lay down
TTITLE9=One of these days
TTITLE10=Sorry
TTITLE11=Y'a qu'elle
TTITLE12=Save the last dance for me
TTITLE13=Coming back to you
EXTD=
EXTT0=
EXTT1=
EXTT2=
EXTT3=
EXTT4=
EXTT5=
EXTT6=
EXTT7=
EXTT8=
EXTT9=
EXTT10=
EXTT11=
EXTT12=
EXTT13=
PLAYORDER=
